<svg xmlns="http://www.w3.org/2000/svg" version="1.1" xmlns:xlink="http://www.w3.org/1999/xlink" xmlns:svgjs="http://svgjs.dev/svgjs" width="2000" height="303" viewBox="0 0 2000 303"><g transform="matrix(1,0,0,1,-1.2121212121212466,1.1782786145612931)"><svg viewBox="0 0 396 60" data-background-color="#ffffff" preserveAspectRatio="xMidYMid meet" height="303" width="2000" xmlns="http://www.w3.org/2000/svg" xmlns:xlink="http://www.w3.org/1999/xlink"><g id="tight-bounds" transform="matrix(1,0,0,1,0.2400000000000091,-0.23332249793293158)"><svg viewBox="0 0 395.52 60.466644995865835" height="60.466644995865835" width="395.52"><g><svg viewBox="0 0 481.81581210586273 73.65944999999999" height="60.466644995865835" width="395.52"><g><svg viewBox="0 0 481.81581210586273 73.65944999999999" height="73.65944999999999" width="481.81581210586273"><g id="textblocktransform"><svg viewBox="0 0 481.81581210586273 73.65944999999999" height="73.65944999999999" width="481.81581210586273" id="textblock"><g><svg viewBox="0 0 481.81581210586273 73.65944999999999" height="73.65944999999999" width="481.81581210586273"><g><svg><g></g><g></g></svg></g><g><svg><g></g><g><svg></svg></g></svg></g><g id="text-0"><svg viewBox="0 0 481.81581210586273 73.65944999999999" height="73.65944999999999" width="481.81581210586273"><g><svg xmlns="http://www.w3.org/2000/svg" xmlns:xlink="http://www.w3.org/1999/xlink" version="1.0" x="0" y="0" viewBox="10.787998042659392 27.71461753367748 77.58389706511464 35.90838246632252" enable-background="new 0 0 100 100" xml:space="preserve" width="159.14911210586274" height="73.65944999999999" class="icon-cg-0" data-fill-palette-color="accent" id="cg-0"><g fill="#ff7e36" data-fill-palette-color="accent"><line fill="none" stroke="#ff7e36" stroke-linecap="round" stroke-miterlimit="10" x1="11.854" y1="58.991" x2="65.89" y2="58.991"></line><line fill="none" stroke="#ff7e36" stroke-linecap="round" stroke-miterlimit="10" x1="11.854" y1="63.037" x2="65.89" y2="63.037"></line><path d="M68.438 57.824c-0.008 2.443 0 5.799 0 5.799s5.952-0.131 9.666-1.011c3.713-0.879 3.02-0.913 6.092-2.182 3.484-1.439 4.266-3.388 4.168-3.975-0.098-0.586-0.551-2.528-1.271-2.803-0.432-0.163-1.441-0.141-1.977-0.027-0.585 0.125-2.42 0.974-2.812 1.169-0.391 0.196-0.754 0.468-2.109 0.888-2.213 0.687-3.362 0.99-5.219 1.42C73.121 57.531 68.438 57.824 68.438 57.824" fill="#ff7e36" data-fill-palette-color="accent"></path><path d="M73.771 53.421c0.263 1.408-0.26 1.538 2.345 1.408 2.608-0.132 2.347-0.116 4.953-0.718 2.995-0.69 4.168-1.617 4.037-2.138-0.13-0.522-1.703-0.884-2.474-1.053-2.972-0.657-3.78-0.782-5.344-1.043-1.563-0.261-1.041-0.391-2.604 0.391C73.121 51.051 73.512 52.014 73.771 53.421z" fill="#ff7e36" data-fill-palette-color="accent"></path><path d="M46.894 43.179c-0.366 0.431-1.015 0.485-1.446 0.118l0 0c-0.432-0.367-0.484-1.015-0.117-1.446l3.206-3.776c0.366-0.432 1.015-0.485 1.446-0.119l0 0c0.432 0.368 0.485 1.016 0.118 1.447L46.894 43.179z" fill="#ff7e36" data-fill-palette-color="accent"></path><path d="M52.18 46.125c-0.349 0.447-0.993 0.527-1.44 0.179l0 0c-0.446-0.348-0.527-0.993-0.179-1.439l3.042-3.91c0.348-0.446 0.993-0.527 1.441-0.179l0 0c0.445 0.348 0.527 0.993 0.18 1.44L52.18 46.125z" fill="#ff7e36" data-fill-palette-color="accent"></path><path d="M57.321 48.648c-0.312 0.473-0.949 0.603-1.423 0.29l0 0c-0.472-0.312-0.602-0.948-0.29-1.42l2.729-4.135c0.312-0.473 0.948-0.603 1.42-0.291l0 0c0.474 0.312 0.605 0.949 0.292 1.421L57.321 48.648z" fill="#ff7e36" data-fill-palette-color="accent"></path><path d="M63.06 51.094c-0.248 0.416-0.843 0.52-1.329 0.232l0 0c-0.488-0.289-0.684-0.861-0.437-1.276l2.153-3.639c0.244-0.417 0.84-0.52 1.328-0.232l0 0c0.487 0.29 0.684 0.86 0.437 1.277L63.06 51.094z" fill="#ff7e36" data-fill-palette-color="accent"></path><path d="M67.553 53.219c-0.225 0.429-0.812 0.562-1.314 0.302l0 0c-0.503-0.261-0.73-0.823-0.506-1.251l1.953-3.75c0.225-0.429 0.812-0.565 1.316-0.302l0 0c0.5 0.261 0.728 0.822 0.503 1.249L67.553 53.219z" fill="#ff7e36" data-fill-palette-color="accent"></path><path d="M32.112 32.681c0 0 2.063 0.545 3.337 1.455 1.368 0.977-0.391 3.031 2.476 4.525 2.966 1.546 2.346 3.295 3.713 2.415 1.368-0.881 2.867-2.415 3.497-3.422 0.626-1 1.909-1.921 0.585-3.583-0.979-1.228-2.029-1.987-3.007-2.769-0.977-0.782-3.916-3.062-5.569-3.288-1.563-0.213-2.443-0.551-3.811 0-1.368 0.551-1.661 0.356-1.857 1.626C31.28 30.912 32.112 32.681 32.112 32.681z" fill="#ff7e36" data-fill-palette-color="accent"></path><g fill="#ff7e36" data-fill-palette-color="accent"><path d="M40.55 42.711c-2.346-1.824-7.557-5.211-8.079-3.191s-3.974 3.451-6.84 4.233-3.958 1.212-8.104-0.411c-1.014-0.397-3.623-2.52-3.623-2.52s-0.847-1.726-2.149 1.661c-1.303 3.387-0.912 10.938-0.912 10.938l0.032 1.766c0 0 53.627 0.03 57.328 0.263C65.648 54.832 42.799 44.46 40.55 42.711zM31.446 54.226c-1.079 0-1.954-0.874-1.954-1.954s0.875-1.954 1.954-1.954c1.08 0 1.955 0.874 1.955 1.954S32.525 54.226 31.446 54.226zM37.659 54.226c-1.079 0-1.954-0.874-1.954-1.954s0.875-1.954 1.954-1.954c1.08 0 1.954 0.874 1.954 1.954S38.739 54.226 37.659 54.226z" fill="#ff7e36" data-fill-palette-color="accent"></path><path d="M68.204 55.449c0.108 0.025 0.194 0.041 0.227 0.03S68.361 55.458 68.204 55.449z" fill="#ff7e36" data-fill-palette-color="accent"></path></g></g></svg></g><g transform="matrix(1,0,0,1,176.53966210586273,0)"><svg width="305.27615" viewBox="1.58 -37.15 188.64999999999998 45.53" height="73.65944999999999" data-palette-color="#ff7e36"><path d="M13.9-26.05L13.9-26.05Q16.32-26.05 18.36-25.28 20.4-24.5 21.88-23.01 23.35-21.53 24.18-19.36 25-17.2 25-14.43L25-14.43Q25-13.73 24.94-13.26 24.88-12.8 24.71-12.54 24.55-12.28 24.28-12.16 24-12.05 23.58-12.05L23.58-12.05 7.73-12.05Q8-8.1 9.85-6.25 11.7-4.4 14.75-4.4L14.75-4.4Q16.25-4.4 17.34-4.75 18.43-5.1 19.24-5.53 20.05-5.95 20.66-6.3 21.28-6.65 21.85-6.65L21.85-6.65Q22.23-6.65 22.5-6.5 22.78-6.35 22.98-6.08L22.98-6.08 24.78-3.83Q23.75-2.63 22.48-1.81 21.2-1 19.81-0.51 18.43-0.03 16.99 0.18 15.55 0.38 14.2 0.38L14.2 0.38Q11.53 0.38 9.22-0.51 6.93-1.4 5.23-3.14 3.53-4.88 2.55-7.44 1.58-10 1.58-13.38L1.58-13.38Q1.58-16 2.43-18.31 3.28-20.63 4.86-22.34 6.45-24.05 8.74-25.05 11.03-26.05 13.9-26.05ZM14.03-21.63L14.03-21.63Q11.33-21.63 9.8-20.1 8.28-18.57 7.85-15.78L7.85-15.78 19.45-15.78Q19.45-16.98 19.13-18.04 18.8-19.1 18.13-19.9 17.45-20.7 16.43-21.16 15.4-21.63 14.03-21.63ZM50.12-16.2L50.12 0 47.35 0Q46.47 0 45.97-0.26 45.47-0.53 45.22-1.33L45.22-1.33 44.67-3.15Q43.7-2.27 42.76-1.61 41.82-0.95 40.82-0.5 39.82-0.05 38.7 0.18 37.57 0.4 36.2 0.4L36.2 0.4Q34.57 0.4 33.2-0.04 31.82-0.48 30.84-1.35 29.85-2.23 29.3-3.53 28.75-4.83 28.75-6.55L28.75-6.55Q28.75-8 29.51-9.41 30.27-10.83 32.05-11.96 33.82-13.1 36.77-13.85 39.72-14.6 44.1-14.7L44.1-14.7 44.1-16.2Q44.1-18.78 43.01-20.01 41.92-21.25 39.85-21.25L39.85-21.25Q38.35-21.25 37.35-20.9 36.35-20.55 35.61-20.11 34.87-19.68 34.25-19.33 33.62-18.98 32.87-18.98L32.87-18.98Q32.25-18.98 31.8-19.3 31.35-19.63 31.07-20.1L31.07-20.1 29.95-22.08Q34.37-26.13 40.62-26.13L40.62-26.13Q42.87-26.13 44.64-25.39 46.4-24.65 47.62-23.34 48.85-22.03 49.48-20.2 50.12-18.38 50.12-16.2L50.12-16.2ZM38.12-3.85L38.12-3.85Q39.07-3.85 39.87-4.03 40.67-4.2 41.39-4.55 42.1-4.9 42.76-5.41 43.42-5.93 44.1-6.63L44.1-6.63 44.1-10.95Q41.4-10.83 39.59-10.49 37.77-10.15 36.67-9.63 35.57-9.1 35.11-8.4 34.65-7.7 34.65-6.88L34.65-6.88Q34.65-5.25 35.61-4.55 36.57-3.85 38.12-3.85ZM72.82-22.88L71.42-20.65Q71.17-20.25 70.9-20.09 70.62-19.93 70.2-19.93L70.2-19.93Q69.75-19.93 69.23-20.18 68.72-20.43 68.05-20.74 67.37-21.05 66.51-21.3 65.65-21.55 64.47-21.55L64.47-21.55Q62.65-21.55 61.6-20.78 60.55-20 60.55-18.75L60.55-18.75Q60.55-17.93 61.08-17.36 61.62-16.8 62.51-16.38 63.4-15.95 64.52-15.61 65.65-15.28 66.82-14.88 68-14.48 69.12-13.96 70.25-13.45 71.13-12.66 72.02-11.88 72.56-10.78 73.09-9.68 73.09-8.13L73.09-8.13Q73.09-6.28 72.42-4.71 71.75-3.15 70.45-2.01 69.15-0.88 67.23-0.24 65.32 0.4 62.85 0.4L62.85 0.4Q61.52 0.4 60.26 0.16 59-0.08 57.83-0.5 56.67-0.93 55.68-1.5 54.7-2.08 53.95-2.75L53.95-2.75 55.37-5.1Q55.65-5.53 56.02-5.75 56.4-5.98 56.97-5.98L56.97-5.98Q57.55-5.98 58.06-5.65 58.57-5.33 59.25-4.95 59.92-4.58 60.83-4.25 61.75-3.93 63.15-3.93L63.15-3.93Q64.25-3.93 65.03-4.19 65.82-4.45 66.33-4.88 66.84-5.3 67.08-5.86 67.32-6.43 67.32-7.03L67.32-7.03Q67.32-7.93 66.78-8.5 66.25-9.08 65.36-9.5 64.47-9.93 63.33-10.26 62.2-10.6 61.01-11 59.82-11.4 58.68-11.94 57.55-12.48 56.66-13.3 55.77-14.13 55.23-15.33 54.7-16.53 54.7-18.23L54.7-18.23Q54.7-19.8 55.32-21.23 55.95-22.65 57.16-23.71 58.37-24.78 60.18-25.41 62-26.05 64.37-26.05L64.37-26.05Q67.02-26.05 69.2-25.18 71.37-24.3 72.82-22.88L72.82-22.88ZM101.12-25.65L87.14 7.05Q86.87 7.7 86.43 8.04 85.99 8.38 85.09 8.38L85.09 8.38 80.49 8.38 85.29-1.9 74.92-25.65 80.32-25.65Q81.07-25.65 81.47-25.3 81.87-24.95 82.07-24.5L82.07-24.5 87.54-11.2Q87.82-10.55 88.02-9.85 88.22-9.15 88.37-8.45L88.37-8.45Q88.57-9.18 88.81-9.85 89.04-10.53 89.32-11.23L89.32-11.23 94.47-24.5Q94.67-25 95.13-25.33 95.59-25.65 96.17-25.65L96.17-25.65 101.12-25.65ZM121.34-22.88L119.94-20.65Q119.69-20.25 119.42-20.09 119.14-19.93 118.72-19.93L118.72-19.93Q118.27-19.93 117.75-20.18 117.24-20.43 116.57-20.74 115.89-21.05 115.03-21.3 114.17-21.55 112.99-21.55L112.99-21.55Q111.17-21.55 110.12-20.78 109.07-20 109.07-18.75L109.07-18.75Q109.07-17.93 109.6-17.36 110.14-16.8 111.03-16.38 111.92-15.95 113.04-15.61 114.17-15.28 115.34-14.88 116.52-14.48 117.64-13.96 118.77-13.45 119.65-12.66 120.54-11.88 121.08-10.78 121.62-9.68 121.62-8.13L121.62-8.13Q121.62-6.28 120.94-4.71 120.27-3.15 118.97-2.01 117.67-0.88 115.75-0.24 113.84 0.4 111.37 0.4L111.37 0.4Q110.04 0.4 108.78 0.16 107.52-0.08 106.35-0.5 105.19-0.93 104.2-1.5 103.22-2.08 102.47-2.75L102.47-2.75 103.89-5.1Q104.17-5.53 104.54-5.75 104.92-5.98 105.49-5.98L105.49-5.98Q106.07-5.98 106.58-5.65 107.09-5.33 107.77-4.95 108.44-4.58 109.35-4.25 110.27-3.93 111.67-3.93L111.67-3.93Q112.77-3.93 113.55-4.19 114.34-4.45 114.85-4.88 115.37-5.3 115.6-5.86 115.84-6.43 115.84-7.03L115.84-7.03Q115.84-7.93 115.3-8.5 114.77-9.08 113.88-9.5 112.99-9.93 111.85-10.26 110.72-10.6 109.53-11 108.34-11.4 107.2-11.94 106.07-12.48 105.18-13.3 104.29-14.13 103.75-15.33 103.22-16.53 103.22-18.23L103.22-18.23Q103.22-19.8 103.84-21.23 104.47-22.65 105.68-23.71 106.89-24.78 108.7-25.41 110.52-26.05 112.89-26.05L112.89-26.05Q115.54-26.05 117.72-25.18 119.89-24.3 121.34-22.88L121.34-22.88ZM137.51-26.05L137.51-26.05Q140.39-26.05 142.73-25.13 145.06-24.2 146.71-22.5 148.36-20.8 149.26-18.35 150.16-15.9 150.16-12.88L150.16-12.88Q150.16-9.83 149.26-7.38 148.36-4.93 146.71-3.2 145.06-1.48 142.73-0.55 140.39 0.38 137.51 0.38L137.51 0.38Q134.64 0.38 132.29-0.55 129.94-1.48 128.28-3.2 126.61-4.93 125.7-7.38 124.79-9.83 124.79-12.88L124.79-12.88Q124.79-15.9 125.7-18.35 126.61-20.8 128.28-22.5 129.94-24.2 132.29-25.13 134.64-26.05 137.51-26.05ZM137.51-4.38L137.51-4.38Q140.71-4.38 142.25-6.53 143.79-8.68 143.79-12.83L143.79-12.83Q143.79-16.98 142.25-19.15 140.71-21.33 137.51-21.33L137.51-21.33Q134.26-21.33 132.71-19.14 131.16-16.95 131.16-12.83L131.16-12.83Q131.16-8.7 132.71-6.54 134.26-4.38 137.51-4.38ZM155.39-37.15L161.56-37.15 161.56 0 155.39 0 155.39-37.15ZM179.13-26.05L179.13-26.05Q181.56-26.05 183.6-25.28 185.63-24.5 187.11-23.01 188.58-21.53 189.41-19.36 190.23-17.2 190.23-14.43L190.23-14.43Q190.23-13.73 190.17-13.26 190.11-12.8 189.95-12.54 189.78-12.28 189.51-12.16 189.23-12.05 188.81-12.05L188.81-12.05 172.96-12.05Q173.23-8.1 175.08-6.25 176.93-4.4 179.98-4.4L179.98-4.4Q181.48-4.4 182.57-4.75 183.66-5.1 184.47-5.53 185.28-5.95 185.9-6.3 186.51-6.65 187.08-6.65L187.08-6.65Q187.46-6.65 187.73-6.5 188.01-6.35 188.21-6.08L188.21-6.08 190.01-3.83Q188.98-2.63 187.71-1.81 186.43-1 185.05-0.51 183.66-0.03 182.22 0.18 180.78 0.38 179.43 0.38L179.43 0.38Q176.76 0.38 174.46-0.51 172.16-1.4 170.46-3.14 168.76-4.88 167.78-7.44 166.81-10 166.81-13.38L166.81-13.38Q166.81-16 167.66-18.31 168.51-20.63 170.1-22.34 171.68-24.05 173.97-25.05 176.26-26.05 179.13-26.05ZM179.26-21.63L179.26-21.63Q176.56-21.63 175.03-20.1 173.51-18.57 173.08-15.78L173.08-15.78 184.68-15.78Q184.68-16.98 184.36-18.04 184.03-19.1 183.36-19.9 182.68-20.7 181.66-21.16 180.63-21.63 179.26-21.63Z" opacity="1" transform="matrix(1,0,0,1,0,0)" fill="#ff7e36" class="wordmark-text-0" data-fill-palette-color="primary"></path></svg></g></svg></g></svg></g></svg></g></svg></g></svg></g><defs></defs></svg><rect width="395.52" height="60.466644995865835" fill="none" stroke="none" visibility="hidden"></rect></g></svg></g></svg>